<svg xmlns="http://www.w3.org/2000/svg" xmlns:xlink="http://www.w3.org/1999/xlink" width="500" zoomAndPan="magnify" viewBox="0 0 375 374.999991" height="500" preserveAspectRatio="xMidYMid meet" version="1.0"><defs><g/><clipPath id="45df748434"><path d="M 261 104.3125 L 322 104.3125 L 322 176.3125 L 261 176.3125 Z M 261 104.3125 " clip-rule="nonzero"/></clipPath></defs><g clip-path="url(#45df748434)"><path d="M 291.617188 104.421875 C 290.117188 104.421875 288.625 104.535156 287.144531 104.761719 C 285.664062 104.984375 284.207031 105.320312 282.773438 105.765625 C 281.34375 106.207031 279.953125 106.757812 278.601562 107.410156 C 277.253906 108.0625 275.960938 108.8125 274.722656 109.660156 C 273.484375 110.507812 272.316406 111.441406 271.21875 112.464844 C 270.121094 113.488281 269.105469 114.585938 268.171875 115.761719 C 267.238281 116.9375 266.398438 118.175781 265.648438 119.480469 C 264.898438 120.78125 264.253906 122.132812 263.707031 123.53125 C 263.160156 124.929688 262.71875 126.363281 262.386719 127.828125 C 262.054688 129.292969 261.832031 130.773438 261.722656 132.273438 C 261.609375 133.769531 261.609375 135.269531 261.722656 136.769531 C 261.835938 138.265625 262.058594 139.75 262.394531 141.214844 C 262.726562 142.679688 263.167969 144.109375 263.71875 145.507812 C 264.265625 146.90625 264.914062 148.257812 265.664062 149.558594 C 266.414062 150.859375 267.257812 152.097656 268.191406 153.269531 C 269.125 154.445312 270.144531 155.542969 271.242188 156.566406 L 290.589844 175.980469 C 290.878906 176.246094 291.21875 176.382812 291.613281 176.390625 C 292.023438 176.382812 292.390625 176.246094 292.707031 175.980469 L 311.75 156.808594 C 312.871094 155.796875 313.910156 154.703125 314.863281 153.535156 C 315.820312 152.367188 316.683594 151.128906 317.453125 149.832031 C 318.226562 148.53125 318.894531 147.179688 319.460938 145.777344 C 320.027344 144.375 320.488281 142.941406 320.835938 141.46875 C 321.1875 140 321.425781 138.511719 321.554688 137.003906 C 321.679688 135.496094 321.695312 133.988281 321.59375 132.480469 C 321.492188 130.96875 321.28125 129.476562 320.957031 128 C 320.628906 126.523438 320.195312 125.078125 319.65625 123.667969 C 319.113281 122.257812 318.46875 120.894531 317.71875 119.582031 C 316.972656 118.269531 316.132812 117.019531 315.195312 115.832031 C 314.261719 114.644531 313.242188 113.535156 312.136719 112.503906 C 311.035156 111.472656 309.863281 110.53125 308.617188 109.675781 C 307.375 108.820312 306.070312 108.066406 304.714844 107.40625 C 303.355469 106.75 301.957031 106.199219 300.515625 105.753906 C 299.074219 105.308594 297.605469 104.972656 296.113281 104.75 C 294.625 104.527344 293.125 104.417969 291.617188 104.421875 Z M 284.738281 153.1875 C 284.222656 153.179688 283.722656 153.074219 283.25 152.871094 C 282.773438 152.664062 282.351562 152.378906 281.992188 152.003906 C 281.628906 151.632812 281.351562 151.207031 281.15625 150.726562 C 280.964844 150.242188 280.871094 149.742188 280.875 149.222656 C 280.878906 148.703125 280.984375 148.203125 281.183594 147.726562 C 281.386719 147.25 281.671875 146.828125 282.042969 146.460938 C 282.410156 146.097656 282.835938 145.816406 283.316406 145.621094 C 283.796875 145.425781 284.292969 145.328125 284.8125 145.332031 C 285.328125 145.332031 285.828125 145.4375 286.304688 145.636719 C 286.785156 145.835938 287.207031 146.121094 287.570312 146.488281 C 287.9375 146.859375 288.21875 147.28125 288.414062 147.761719 C 288.613281 148.242188 288.710938 148.742188 288.710938 149.261719 C 288.707031 149.785156 288.601562 150.289062 288.398438 150.773438 C 288.195312 151.253906 287.90625 151.679688 287.535156 152.046875 C 287.160156 152.417969 286.734375 152.699219 286.25 152.894531 C 285.765625 153.09375 285.261719 153.191406 284.738281 153.1875 Z M 298.164062 153.1875 C 297.644531 153.1875 297.144531 153.089844 296.664062 152.890625 C 296.183594 152.691406 295.757812 152.40625 295.390625 152.039062 C 295.023438 151.671875 294.742188 151.246094 294.542969 150.765625 C 294.34375 150.28125 294.242188 149.78125 294.242188 149.261719 C 294.242188 148.738281 294.339844 148.238281 294.539062 147.757812 C 294.738281 147.273438 295.023438 146.851562 295.390625 146.480469 C 295.757812 146.113281 296.179688 145.828125 296.660156 145.628906 C 297.140625 145.429688 297.640625 145.332031 298.160156 145.332031 C 298.679688 145.332031 299.179688 145.429688 299.660156 145.628906 C 300.140625 145.832031 300.566406 146.113281 300.933594 146.484375 C 301.300781 146.851562 301.582031 147.277344 301.78125 147.757812 C 301.980469 148.238281 302.078125 148.742188 302.078125 149.261719 C 302.074219 149.78125 301.972656 150.28125 301.773438 150.761719 C 301.574219 151.238281 301.292969 151.664062 300.925781 152.03125 C 300.558594 152.398438 300.136719 152.679688 299.660156 152.882812 C 299.183594 153.082031 298.683594 153.183594 298.167969 153.1875 Z M 304.648438 129.816406 L 301.589844 141.300781 C 301.484375 141.675781 301.324219 142.023438 301.105469 142.347656 C 300.886719 142.667969 300.621094 142.949219 300.3125 143.1875 C 300.003906 143.421875 299.664062 143.605469 299.296875 143.730469 C 298.929688 143.859375 298.550781 143.925781 298.164062 143.929688 L 284.738281 143.929688 C 284.351562 143.933594 283.972656 143.871094 283.605469 143.746094 C 283.238281 143.625 282.898438 143.441406 282.589844 143.203125 C 282.285156 142.96875 282.023438 142.6875 281.808594 142.363281 C 281.59375 142.039062 281.4375 141.6875 281.339844 141.308594 L 278.207031 129.816406 C 278.210938 129.792969 278.210938 129.769531 278.207031 129.746094 L 276.835938 124.664062 L 274.746094 124.664062 C 274.554688 124.652344 274.367188 124.609375 274.191406 124.527344 C 274.015625 124.449219 273.863281 124.335938 273.726562 124.199219 C 273.59375 124.058594 273.492188 123.898438 273.417969 123.714844 C 273.347656 123.535156 273.3125 123.347656 273.3125 123.15625 C 273.3125 122.960938 273.347656 122.773438 273.417969 122.59375 C 273.492188 122.414062 273.59375 122.253906 273.726562 122.113281 C 273.863281 121.972656 274.015625 121.863281 274.191406 121.78125 C 274.367188 121.699219 274.554688 121.65625 274.746094 121.648438 L 277.992188 121.648438 C 278.324219 121.632812 278.625 121.730469 278.890625 121.933594 C 279.15625 122.136719 279.328125 122.398438 279.402344 122.726562 L 280.792969 127.953125 L 303.207031 127.953125 C 303.703125 127.917969 304.089844 128.109375 304.367188 128.523438 C 304.703125 128.902344 304.796875 129.332031 304.652344 129.816406 Z M 304.648438 129.816406 " fill-opacity="1" fill-rule="nonzero"/></g><g fill="#000000" fill-opacity="1"><g transform="translate(39.897519, 172.724244)"><g><path d="M 43.734375 -14.734375 C 43.734375 -13.546875 43.421875 -12.390625 42.796875 -11.265625 C 42.171875 -10.203125 40.703125 -8.945312 38.390625 -7.5 C 36.078125 -6.0625 33.507812 -4.703125 30.6875 -3.421875 C 27.875 -2.140625 25.148438 -1.046875 22.515625 -0.140625 C 19.890625 0.765625 17.953125 1.21875 16.703125 1.21875 C 15.828125 1.21875 14.796875 1.015625 13.609375 0.609375 C 12.421875 0.203125 11.234375 -0.3125 10.046875 -0.9375 C 8.859375 -1.5625 7.773438 -2.28125 6.796875 -3.09375 C 5.828125 -3.90625 5.125 -4.6875 4.6875 -5.4375 C 4.4375 -5.875 4.203125 -6.75 3.984375 -8.0625 C 3.765625 -9.382812 3.578125 -10.921875 3.421875 -12.671875 C 3.265625 -14.421875 3.125 -16.28125 3 -18.25 C 2.875 -20.226562 2.765625 -22.109375 2.671875 -23.890625 C 2.578125 -25.671875 2.515625 -27.25 2.484375 -28.625 C 2.453125 -30 2.4375 -31 2.4375 -31.625 C 2.4375 -33.945312 2.515625 -36.609375 2.671875 -39.609375 C 2.828125 -42.609375 3.125 -45.625 3.5625 -48.65625 C 4 -51.695312 4.640625 -54.609375 5.484375 -57.390625 C 6.328125 -60.171875 7.472656 -62.535156 8.921875 -64.484375 C 9.359375 -65.046875 10.234375 -65.640625 11.546875 -66.265625 C 12.859375 -66.890625 14.40625 -67.484375 16.1875 -68.046875 C 17.96875 -68.609375 19.890625 -69.140625 21.953125 -69.640625 C 24.023438 -70.140625 26.015625 -70.5625 27.921875 -70.90625 C 29.828125 -71.25 31.5625 -71.53125 33.125 -71.75 C 34.695312 -71.96875 35.890625 -72.078125 36.703125 -72.078125 C 37.640625 -72.078125 38.53125 -71.875 39.375 -71.46875 C 40.21875 -71.0625 40.9375 -70.515625 41.53125 -69.828125 C 42.125 -69.140625 42.59375 -68.375 42.9375 -67.53125 C 43.28125 -66.6875 43.453125 -65.796875 43.453125 -64.859375 C 43.453125 -64.046875 43.34375 -63.359375 43.125 -62.796875 C 42.90625 -62.234375 42.578125 -61.601562 42.140625 -60.90625 C 41.515625 -60.09375 40.203125 -59.125 38.203125 -58 C 36.203125 -56.875 34.023438 -55.765625 31.671875 -54.671875 C 29.328125 -53.578125 27.078125 -52.59375 24.921875 -51.71875 C 22.765625 -50.84375 21.242188 -50.21875 20.359375 -49.84375 C 20.109375 -48.394531 19.84375 -46.9375 19.5625 -45.46875 C 19.28125 -44 19.078125 -42.515625 18.953125 -41.015625 C 20.898438 -42.015625 23.09375 -42.953125 25.53125 -43.828125 C 27.96875 -44.703125 30.28125 -45.140625 32.46875 -45.140625 C 36.914062 -45.140625 39.140625 -42.953125 39.140625 -38.578125 C 39.140625 -37.515625 38.9375 -36.578125 38.53125 -35.765625 C 38.125 -34.953125 37.59375 -34.226562 36.9375 -33.59375 C 36.28125 -32.96875 35.523438 -32.421875 34.671875 -31.953125 C 33.828125 -31.484375 33 -31.03125 32.1875 -30.59375 C 30.1875 -29.53125 28.09375 -28.609375 25.90625 -27.828125 C 23.71875 -27.046875 21.523438 -26.28125 19.328125 -25.53125 C 19.203125 -25.03125 19.078125 -24.484375 18.953125 -23.890625 C 18.828125 -23.296875 18.765625 -22.71875 18.765625 -22.15625 C 18.765625 -21.28125 18.828125 -20.398438 18.953125 -19.515625 C 19.078125 -18.640625 19.203125 -17.765625 19.328125 -16.890625 C 20.078125 -17.140625 21.28125 -17.546875 22.9375 -18.109375 C 24.601562 -18.671875 26.34375 -19.234375 28.15625 -19.796875 C 29.96875 -20.367188 31.71875 -20.859375 33.40625 -21.265625 C 35.101562 -21.671875 36.359375 -21.875 37.171875 -21.875 C 38.109375 -21.875 38.984375 -21.671875 39.796875 -21.265625 C 40.609375 -20.859375 41.296875 -20.320312 41.859375 -19.65625 C 42.421875 -19 42.875 -18.234375 43.21875 -17.359375 C 43.5625 -16.484375 43.734375 -15.609375 43.734375 -14.734375 Z M 43.734375 -14.734375 "/></g></g><g transform="translate(85.044938, 172.724244)"><g><path d="M 33.5 -65.890625 C 33.5 -64.453125 33.046875 -63.195312 32.140625 -62.125 C 31.234375 -61.0625 30.15625 -60.1875 28.90625 -59.5 C 27.78125 -58.8125 26.625 -58.078125 25.4375 -57.296875 C 24.25 -56.515625 23.15625 -55.640625 22.15625 -54.671875 C 21.15625 -53.703125 20.335938 -52.625 19.703125 -51.4375 C 19.078125 -50.25 18.765625 -48.898438 18.765625 -47.390625 C 18.765625 -46.078125 19.078125 -44.890625 19.703125 -43.828125 C 20.335938 -42.765625 21.109375 -41.71875 22.015625 -40.6875 C 22.921875 -39.65625 23.921875 -38.59375 25.015625 -37.5 C 26.109375 -36.40625 27.109375 -35.179688 28.015625 -33.828125 C 28.921875 -32.484375 29.6875 -30.96875 30.3125 -29.28125 C 30.9375 -27.59375 31.25 -25.625 31.25 -23.375 C 31.25 -21.8125 30.921875 -20.039062 30.265625 -18.0625 C 29.609375 -16.09375 28.71875 -14.109375 27.59375 -12.109375 C 26.46875 -10.109375 25.140625 -8.164062 23.609375 -6.28125 C 22.078125 -4.40625 20.445312 -2.734375 18.71875 -1.265625 C 17 0.203125 15.203125 1.390625 13.328125 2.296875 C 11.453125 3.203125 9.640625 3.65625 7.890625 3.65625 C 5.941406 3.65625 4.21875 3.125 2.71875 2.0625 C 1.21875 1 0.46875 -0.59375 0.46875 -2.71875 C 0.46875 -4.15625 0.8125 -5.484375 1.5 -6.703125 C 2.1875 -7.929688 3.03125 -9.109375 4.03125 -10.234375 C 5.03125 -11.359375 6.140625 -12.453125 7.359375 -13.515625 C 8.585938 -14.578125 9.703125 -15.640625 10.703125 -16.703125 C 11.703125 -17.765625 12.546875 -18.875 13.234375 -20.03125 C 13.921875 -21.195312 14.265625 -22.4375 14.265625 -23.75 C 14.265625 -25.5625 13.625 -27.421875 12.34375 -29.328125 C 11.0625 -31.234375 9.632812 -33.203125 8.0625 -35.234375 C 6.5 -37.273438 5.078125 -39.359375 3.796875 -41.484375 C 2.515625 -43.609375 1.875 -45.765625 1.875 -47.953125 C 1.875 -50.648438 2.59375 -53.484375 4.03125 -56.453125 C 5.46875 -59.421875 7.3125 -62.140625 9.5625 -64.609375 C 11.820312 -67.085938 14.359375 -69.140625 17.171875 -70.765625 C 19.992188 -72.390625 22.78125 -73.203125 25.53125 -73.203125 C 27.71875 -73.203125 29.59375 -72.546875 31.15625 -71.234375 C 32.71875 -69.921875 33.5 -68.140625 33.5 -65.890625 Z M 33.5 -65.890625 "/></g></g></g><g fill-opacity="1"><g transform="translate(103.771652, 230.161407)"><g><path d="M 33.5 -65.890625 C 33.5 -64.453125 33.046875 -63.195312 32.140625 -62.125 C 31.234375 -61.0625 30.15625 -60.1875 28.90625 -59.5 C 27.78125 -58.8125 26.625 -58.078125 25.4375 -57.296875 C 24.25 -56.515625 23.15625 -55.640625 22.15625 -54.671875 C 21.15625 -53.703125 20.335938 -52.625 19.703125 -51.4375 C 19.078125 -50.25 18.765625 -48.898438 18.765625 -47.390625 C 18.765625 -46.078125 19.078125 -44.890625 19.703125 -43.828125 C 20.335938 -42.765625 21.109375 -41.71875 22.015625 -40.6875 C 22.921875 -39.65625 23.921875 -38.59375 25.015625 -37.5 C 26.109375 -36.40625 27.109375 -35.179688 28.015625 -33.828125 C 28.921875 -32.484375 29.6875 -30.96875 30.3125 -29.28125 C 30.9375 -27.59375 31.25 -25.625 31.25 -23.375 C 31.25 -21.8125 30.921875 -20.039062 30.265625 -18.0625 C 29.609375 -16.09375 28.71875 -14.109375 27.59375 -12.109375 C 26.46875 -10.109375 25.140625 -8.164062 23.609375 -6.28125 C 22.078125 -4.40625 20.445312 -2.734375 18.71875 -1.265625 C 17 0.203125 15.203125 1.390625 13.328125 2.296875 C 11.453125 3.203125 9.640625 3.65625 7.890625 3.65625 C 5.941406 3.65625 4.21875 3.125 2.71875 2.0625 C 1.21875 1 0.46875 -0.59375 0.46875 -2.71875 C 0.46875 -4.15625 0.8125 -5.484375 1.5 -6.703125 C 2.1875 -7.929688 3.03125 -9.109375 4.03125 -10.234375 C 5.03125 -11.359375 6.140625 -12.453125 7.359375 -13.515625 C 8.585938 -14.578125 9.703125 -15.640625 10.703125 -16.703125 C 11.703125 -17.765625 12.546875 -18.875 13.234375 -20.03125 C 13.921875 -21.195312 14.265625 -22.4375 14.265625 -23.75 C 14.265625 -25.5625 13.625 -27.421875 12.34375 -29.328125 C 11.0625 -31.234375 9.632812 -33.203125 8.0625 -35.234375 C 6.5 -37.273438 5.078125 -39.359375 3.796875 -41.484375 C 2.515625 -43.609375 1.875 -45.765625 1.875 -47.953125 C 1.875 -50.648438 2.59375 -53.484375 4.03125 -56.453125 C 5.46875 -59.421875 7.3125 -62.140625 9.5625 -64.609375 C 11.820312 -67.085938 14.359375 -69.140625 17.171875 -70.765625 C 19.992188 -72.390625 22.78125 -73.203125 25.53125 -73.203125 C 27.71875 -73.203125 29.59375 -72.546875 31.15625 -71.234375 C 32.71875 -69.921875 33.5 -68.140625 33.5 -65.890625 Z M 33.5 -65.890625 "/></g></g><g transform="translate(137.749544, 230.161407)"><g><path d="M 45.421875 -24.3125 C 45.421875 -23.25 45.40625 -21.664062 45.375 -19.5625 C 45.34375 -17.46875 45.25 -15.28125 45.09375 -13 C 44.9375 -10.71875 44.734375 -8.554688 44.484375 -6.515625 C 44.234375 -4.484375 43.921875 -3 43.546875 -2.0625 C 43.046875 -0.875 42.390625 0.15625 41.578125 1.03125 C 40.765625 1.90625 39.671875 2.34375 38.296875 2.34375 C 36.171875 2.34375 34.632812 1.5 33.6875 -0.1875 C 32.75 -1.875 32.125 -3.96875 31.8125 -6.46875 C 31.5 -8.976562 31.375 -11.703125 31.4375 -14.640625 C 31.5 -17.578125 31.46875 -20.296875 31.34375 -22.796875 C 31.21875 -25.304688 30.875 -27.40625 30.3125 -29.09375 C 29.75 -30.78125 28.71875 -31.625 27.21875 -31.625 C 25.15625 -31.625 23.578125 -31.296875 22.484375 -30.640625 C 21.390625 -29.984375 20.601562 -29.125 20.125 -28.0625 C 19.65625 -27 19.375 -25.78125 19.28125 -24.40625 C 19.1875 -23.03125 19.078125 -21.585938 18.953125 -20.078125 C 18.828125 -18.640625 18.734375 -16.703125 18.671875 -14.265625 C 18.609375 -11.828125 18.328125 -9.414062 17.828125 -7.03125 C 17.328125 -4.65625 16.5 -2.609375 15.34375 -0.890625 C 14.1875 0.828125 12.484375 1.6875 10.234375 1.6875 C 8.859375 1.6875 7.742188 1.15625 6.890625 0.09375 C 6.046875 -0.96875 5.375 -2.34375 4.875 -4.03125 C 4.375 -5.71875 4.015625 -7.59375 3.796875 -9.65625 C 3.578125 -11.726562 3.453125 -13.75 3.421875 -15.71875 C 3.390625 -17.6875 3.390625 -19.484375 3.421875 -21.109375 C 3.453125 -22.742188 3.46875 -23.96875 3.46875 -24.78125 C 3.46875 -26.03125 3.515625 -28.09375 3.609375 -30.96875 C 3.703125 -33.851562 3.90625 -37.0625 4.21875 -40.59375 C 4.53125 -44.125 4.9375 -47.765625 5.4375 -51.515625 C 5.9375 -55.273438 6.59375 -58.703125 7.40625 -61.796875 C 8.226562 -64.898438 9.21875 -67.421875 10.375 -69.359375 C 11.53125 -71.296875 12.890625 -72.234375 14.453125 -72.171875 C 15.453125 -72.109375 16.3125 -71.671875 17.03125 -70.859375 C 17.75 -70.046875 18.34375 -69 18.8125 -67.71875 C 19.28125 -66.4375 19.671875 -65.039062 19.984375 -63.53125 C 20.296875 -62.03125 20.53125 -60.546875 20.6875 -59.078125 C 20.851562 -57.609375 20.953125 -56.25 20.984375 -55 C 21.015625 -53.75 21.03125 -52.78125 21.03125 -52.09375 C 21.03125 -50.46875 21 -48.835938 20.9375 -47.203125 C 20.875 -45.578125 20.78125 -43.953125 20.65625 -42.328125 C 22.09375 -44.265625 24.015625 -45.859375 26.421875 -47.109375 C 28.828125 -48.367188 31.25 -49 33.6875 -49 C 36.820312 -49 39.1875 -48.132812 40.78125 -46.40625 C 42.375 -44.6875 43.515625 -42.5625 44.203125 -40.03125 C 44.890625 -37.5 45.265625 -34.804688 45.328125 -31.953125 C 45.390625 -29.109375 45.421875 -26.5625 45.421875 -24.3125 Z M 45.421875 -24.3125 "/></g></g><g transform="translate(187.026872, 230.161407)"><g><path d="M 20.65625 2.71875 C 17.457031 2.71875 14.671875 1.875 12.296875 0.1875 C 9.921875 -1.5 7.914062 -3.65625 6.28125 -6.28125 C 4.65625 -8.914062 3.4375 -11.84375 2.625 -15.0625 C 1.8125 -18.28125 1.40625 -21.457031 1.40625 -24.59375 C 1.40625 -27.90625 1.8125 -31.328125 2.625 -34.859375 C 3.4375 -38.398438 4.6875 -41.625 6.375 -44.53125 C 8.070312 -47.445312 10.234375 -49.828125 12.859375 -51.671875 C 15.484375 -53.515625 18.613281 -54.4375 22.25 -54.4375 C 25.75 -54.4375 28.734375 -53.484375 31.203125 -51.578125 C 33.679688 -49.671875 35.671875 -47.289062 37.171875 -44.4375 C 38.671875 -41.59375 39.734375 -38.476562 40.359375 -35.09375 C 40.984375 -31.71875 41.203125 -28.53125 41.015625 -25.53125 C 40.828125 -22.207031 40.3125 -18.859375 39.46875 -15.484375 C 38.625 -12.109375 37.382812 -9.070312 35.75 -6.375 C 34.125 -3.6875 32.0625 -1.5 29.5625 0.1875 C 27.0625 1.875 24.09375 2.71875 20.65625 2.71875 Z M 21.59375 -39.703125 C 20.644531 -39.703125 19.8125 -39.203125 19.09375 -38.203125 C 18.375 -37.203125 17.78125 -35.976562 17.3125 -34.53125 C 16.84375 -33.09375 16.484375 -31.578125 16.234375 -29.984375 C 15.984375 -28.390625 15.859375 -27 15.859375 -25.8125 C 15.859375 -24.3125 16 -22.679688 16.28125 -20.921875 C 16.5625 -19.171875 16.953125 -17.5625 17.453125 -16.09375 C 17.953125 -14.625 18.5625 -13.40625 19.28125 -12.4375 C 20 -11.46875 20.832031 -10.984375 21.78125 -10.984375 C 22.78125 -10.984375 23.640625 -11.453125 24.359375 -12.390625 C 25.078125 -13.328125 25.65625 -14.515625 26.09375 -15.953125 C 26.53125 -17.390625 26.84375 -18.96875 27.03125 -20.6875 C 27.21875 -22.414062 27.3125 -24.03125 27.3125 -25.53125 C 27.3125 -26.90625 27.1875 -28.421875 26.9375 -30.078125 C 26.6875 -31.734375 26.328125 -33.28125 25.859375 -34.71875 C 25.390625 -36.164062 24.796875 -37.359375 24.078125 -38.296875 C 23.359375 -39.234375 22.53125 -39.703125 21.59375 -39.703125 Z M 21.59375 -39.703125 "/></g></g><g transform="translate(230.015476, 230.161407)"><g><path d="M 45.796875 -27.96875 C 45.796875 -25.21875 45.5 -22.195312 44.90625 -18.90625 C 44.3125 -15.625 43.3125 -12.570312 41.90625 -9.75 C 40.5 -6.9375 38.648438 -4.59375 36.359375 -2.71875 C 34.078125 -0.84375 31.21875 0.09375 27.78125 0.09375 C 26.90625 0.09375 26 0.03125 25.0625 -0.09375 C 24.125 -0.21875 23.234375 -0.4375 22.390625 -0.75 C 21.546875 -1.0625 20.773438 -1.484375 20.078125 -2.015625 C 19.390625 -2.546875 18.859375 -3.25 18.484375 -4.125 L 17.640625 9.390625 C 17.578125 10.828125 17.53125 12.546875 17.5 14.546875 C 17.46875 16.546875 17.21875 18.453125 16.75 20.265625 C 16.28125 22.085938 15.5 23.640625 14.40625 24.921875 C 13.3125 26.203125 11.734375 26.84375 9.671875 26.84375 C 8.484375 26.84375 7.476562 26.234375 6.65625 25.015625 C 5.84375 23.796875 5.203125 22.242188 4.734375 20.359375 C 4.265625 18.484375 3.90625 16.390625 3.65625 14.078125 C 3.40625 11.765625 3.25 9.539062 3.1875 7.40625 C 3.125 5.28125 3.09375 3.34375 3.09375 1.59375 C 3.09375 -0.15625 3.09375 -1.4375 3.09375 -2.25 C 3.09375 -6.445312 3.0625 -10.625 3 -14.78125 C 2.9375 -18.945312 2.90625 -23.125 2.90625 -27.3125 C 2.90625 -28.0625 2.90625 -29.234375 2.90625 -30.828125 C 2.90625 -32.421875 2.96875 -34.15625 3.09375 -36.03125 C 3.21875 -37.914062 3.421875 -39.859375 3.703125 -41.859375 C 3.984375 -43.859375 4.40625 -45.6875 4.96875 -47.34375 C 5.53125 -49.007812 6.25 -50.359375 7.125 -51.390625 C 8.007812 -52.421875 9.078125 -52.9375 10.328125 -52.9375 C 11.140625 -52.9375 11.875 -52.703125 12.53125 -52.234375 C 13.1875 -51.765625 13.75 -51.171875 14.21875 -50.453125 C 14.6875 -49.734375 15.078125 -48.960938 15.390625 -48.140625 C 15.703125 -47.328125 15.953125 -46.578125 16.140625 -45.890625 C 18.078125 -48.085938 20.3125 -49.75 22.84375 -50.875 C 25.382812 -52 28.09375 -52.5625 30.96875 -52.5625 C 33.976562 -52.5625 36.4375 -51.710938 38.34375 -50.015625 C 40.25 -48.328125 41.75 -46.234375 42.84375 -43.734375 C 43.9375 -41.234375 44.703125 -38.554688 45.140625 -35.703125 C 45.578125 -32.859375 45.796875 -30.28125 45.796875 -27.96875 Z M 32.375 -28.71875 C 32.375 -29.65625 32.296875 -30.609375 32.140625 -31.578125 C 31.984375 -32.546875 31.703125 -33.453125 31.296875 -34.296875 C 30.890625 -35.148438 30.3125 -35.84375 29.5625 -36.375 C 28.8125 -36.90625 27.875 -37.171875 26.75 -37.171875 C 25.25 -37.171875 23.664062 -36.679688 22 -35.703125 C 20.34375 -34.734375 19.109375 -33.625 18.296875 -32.375 C 17.984375 -31.875 17.796875 -31.0625 17.734375 -29.9375 C 17.671875 -28.8125 17.640625 -27.96875 17.640625 -27.40625 C 17.640625 -26.96875 17.65625 -26.390625 17.6875 -25.671875 C 17.71875 -24.953125 17.765625 -24.21875 17.828125 -23.46875 C 17.890625 -22.71875 17.96875 -21.992188 18.0625 -21.296875 C 18.15625 -20.609375 18.296875 -20.078125 18.484375 -19.703125 C 18.671875 -19.140625 19.078125 -18.625 19.703125 -18.15625 C 20.335938 -17.6875 21.03125 -17.265625 21.78125 -16.890625 C 22.53125 -16.515625 23.296875 -16.234375 24.078125 -16.046875 C 24.859375 -15.859375 25.53125 -15.765625 26.09375 -15.765625 C 27.40625 -15.765625 28.46875 -16.265625 29.28125 -17.265625 C 30.09375 -18.265625 30.734375 -19.453125 31.203125 -20.828125 C 31.671875 -22.210938 31.984375 -23.640625 32.140625 -25.109375 C 32.296875 -26.578125 32.375 -27.78125 32.375 -28.71875 Z M 32.375 -28.71875 "/></g></g><g transform="translate(278.729636, 230.161407)"><g><path d="M 18.296875 -65.515625 C 18.296875 -64.640625 18.0625 -63.859375 17.59375 -63.171875 C 17.125 -62.484375 16.515625 -61.867188 15.765625 -61.328125 C 15.015625 -60.796875 14.203125 -60.390625 13.328125 -60.109375 C 12.453125 -59.828125 11.640625 -59.6875 10.890625 -59.6875 C 9.640625 -59.6875 8.539062 -60 7.59375 -60.625 C 6.65625 -61.25 6.1875 -62.222656 6.1875 -63.546875 C 6.1875 -64.484375 6.421875 -65.3125 6.890625 -66.03125 C 7.367188 -66.75 7.953125 -67.34375 8.640625 -67.8125 C 9.328125 -68.28125 10.109375 -68.640625 10.984375 -68.890625 C 11.859375 -69.140625 12.703125 -69.265625 13.515625 -69.265625 C 14.703125 -69.265625 15.796875 -68.984375 16.796875 -68.421875 C 17.796875 -67.859375 18.296875 -66.890625 18.296875 -65.515625 Z M 19.046875 -33.59375 C 19.046875 -32.71875 19.046875 -31.796875 19.046875 -30.828125 C 19.046875 -29.859375 19.015625 -28.9375 18.953125 -28.0625 C 18.890625 -27 18.859375 -25.578125 18.859375 -23.796875 C 18.859375 -22.015625 18.796875 -20.085938 18.671875 -18.015625 C 18.546875 -15.953125 18.34375 -13.859375 18.0625 -11.734375 C 17.78125 -9.609375 17.328125 -7.664062 16.703125 -5.90625 C 16.078125 -4.15625 15.25 -2.734375 14.21875 -1.640625 C 13.1875 -0.546875 11.890625 0.03125 10.328125 0.09375 C 9.140625 0.15625 8.132812 -0.3125 7.3125 -1.3125 C 6.5 -2.3125 5.828125 -3.609375 5.296875 -5.203125 C 4.765625 -6.804688 4.375 -8.59375 4.125 -10.5625 C 3.875 -12.53125 3.6875 -14.4375 3.5625 -16.28125 C 3.4375 -18.125 3.375 -19.828125 3.375 -21.390625 C 3.375 -22.960938 3.375 -24.125 3.375 -24.875 C 3.375 -25.875 3.375 -27.296875 3.375 -29.140625 C 3.375 -30.984375 3.4375 -32.96875 3.5625 -35.09375 C 3.6875 -37.226562 3.921875 -39.390625 4.265625 -41.578125 C 4.609375 -43.765625 5.109375 -45.765625 5.765625 -47.578125 C 6.421875 -49.398438 7.28125 -50.875 8.34375 -52 C 9.414062 -53.125 10.765625 -53.6875 12.390625 -53.6875 C 14.078125 -53.6875 15.359375 -52.84375 16.234375 -51.15625 C 17.109375 -49.46875 17.765625 -47.492188 18.203125 -45.234375 C 18.640625 -42.984375 18.890625 -40.75 18.953125 -38.53125 C 19.015625 -36.3125 19.046875 -34.664062 19.046875 -33.59375 Z M 19.046875 -33.59375 "/></g></g></g></svg>