<svg xmlns="http://www.w3.org/2000/svg" xmlns:xlink="http://www.w3.org/1999/xlink" width="500" zoomAndPan="magnify" viewBox="0 0 375 374.999991" height="500" preserveAspectRatio="xMidYMid meet" version="1.0"><defs><g/><clipPath id="7569715dba"><path d="M 217 118.390625 L 369 118.390625 L 369 298.390625 L 217 298.390625 Z M 217 118.390625 " clip-rule="nonzero"/></clipPath></defs><g clip-path="url(#7569715dba)"><path  d="M 292.980469 118.664062 C 291.105469 118.664062 289.230469 118.738281 287.359375 118.878906 C 285.488281 119.019531 283.625 119.230469 281.769531 119.511719 C 279.914062 119.792969 278.070312 120.144531 276.242188 120.5625 C 274.410156 120.984375 272.601562 121.46875 270.808594 122.023438 C 269.015625 122.578125 267.246094 123.199219 265.5 123.886719 C 263.753906 124.574219 262.035156 125.324219 260.34375 126.140625 C 258.652344 126.957031 256.996094 127.832031 255.371094 128.773438 C 253.746094 129.710938 252.160156 130.710938 250.609375 131.769531 C 249.058594 132.828125 247.550781 133.941406 246.085938 135.113281 C 244.621094 136.285156 243.199219 137.507812 241.824219 138.785156 C 240.449219 140.0625 239.125 141.390625 237.847656 142.765625 C 236.574219 144.144531 235.351562 145.566406 234.179688 147.035156 C 233.011719 148.503906 231.898438 150.011719 230.84375 151.5625 C 229.789062 153.113281 228.789062 154.703125 227.851562 156.328125 C 226.914062 157.953125 226.039062 159.613281 225.226562 161.304688 C 224.414062 162.996094 223.664062 164.714844 222.980469 166.460938 C 222.296875 168.210938 221.679688 169.980469 221.125 171.773438 C 220.574219 173.566406 220.089844 175.378906 219.671875 177.210938 C 219.257812 179.039062 218.910156 180.882812 218.628906 182.738281 C 218.351562 184.59375 218.144531 186.457031 218.003906 188.328125 C 217.863281 190.199219 217.796875 192.074219 217.796875 193.953125 C 217.796875 195.828125 217.867188 197.703125 218.007812 199.574219 C 218.152344 201.445312 218.363281 203.308594 218.640625 205.164062 C 218.921875 207.019531 219.273438 208.863281 219.691406 210.691406 C 220.109375 212.519531 220.597656 214.332031 221.148438 216.125 C 221.703125 217.917969 222.324219 219.6875 223.011719 221.433594 C 223.695312 223.179688 224.449219 224.898438 225.261719 226.589844 C 226.078125 228.28125 226.953125 229.9375 227.894531 231.5625 C 228.832031 233.1875 229.832031 234.777344 230.890625 236.324219 C 231.949219 237.875 233.0625 239.382812 234.230469 240.851562 C 235.402344 242.316406 236.625 243.738281 237.902344 245.113281 C 239.179688 246.488281 240.507812 247.816406 241.882812 249.089844 L 290.40625 297.648438 C 291.132812 298.3125 291.988281 298.65625 292.972656 298.675781 C 294.007812 298.65625 294.925781 298.3125 295.71875 297.648438 L 343.480469 249.695312 C 344.882812 248.433594 346.238281 247.117188 347.539062 245.75 C 348.84375 244.382812 350.09375 242.972656 351.292969 241.511719 C 352.488281 240.050781 353.628906 238.546875 354.714844 237 C 355.800781 235.453125 356.824219 233.867188 357.789062 232.246094 C 358.753906 230.621094 359.65625 228.964844 360.496094 227.273438 C 361.335938 225.582031 362.109375 223.859375 362.820312 222.109375 C 363.53125 220.359375 364.171875 218.585938 364.75 216.785156 C 365.324219 214.988281 365.832031 213.167969 366.273438 211.332031 C 366.710938 209.496094 367.082031 207.644531 367.382812 205.78125 C 367.679688 203.917969 367.910156 202.042969 368.070312 200.160156 C 368.226562 198.277344 368.316406 196.394531 368.332031 194.503906 C 368.347656 192.617188 368.292969 190.730469 368.167969 188.84375 C 368.042969 186.960938 367.847656 185.082031 367.578125 183.214844 C 367.3125 181.34375 366.976562 179.488281 366.570312 177.644531 C 366.160156 175.800781 365.6875 173.972656 365.140625 172.164062 C 364.597656 170.355469 363.984375 168.570312 363.304688 166.808594 C 362.625 165.046875 361.882812 163.3125 361.070312 161.605469 C 360.261719 159.898438 359.390625 158.226562 358.453125 156.585938 C 357.515625 154.945312 356.519531 153.34375 355.464844 151.777344 C 354.40625 150.210938 353.292969 148.6875 352.121094 147.207031 C 350.949219 145.726562 349.722656 144.289062 348.445312 142.902344 C 347.164062 141.511719 345.835938 140.175781 344.453125 138.886719 C 343.074219 137.597656 341.644531 136.363281 340.171875 135.179688 C 338.699219 134 337.183594 132.875 335.625 131.808594 C 334.066406 130.742188 332.46875 129.734375 330.835938 128.789062 C 329.199219 127.839844 327.535156 126.957031 325.832031 126.136719 C 324.132812 125.316406 322.402344 124.558594 320.644531 123.871094 C 318.886719 123.179688 317.105469 122.554688 315.300781 122 C 313.496094 121.441406 311.671875 120.957031 309.832031 120.535156 C 307.988281 120.117188 306.132812 119.769531 304.265625 119.488281 C 302.398438 119.210938 300.523438 119 298.640625 118.863281 C 296.753906 118.726562 294.871094 118.660156 292.980469 118.664062 Z M 275.734375 240.640625 C 275.09375 240.632812 274.457031 240.5625 273.824219 240.429688 C 273.195312 240.296875 272.585938 240.101562 271.996094 239.847656 C 271.402344 239.59375 270.84375 239.285156 270.3125 238.921875 C 269.78125 238.558594 269.292969 238.144531 268.839844 237.6875 C 268.390625 237.226562 267.992188 236.726562 267.640625 236.1875 C 267.289062 235.648438 266.992188 235.082031 266.75 234.484375 C 266.511719 233.886719 266.332031 233.273438 266.210938 232.640625 C 266.09375 232.007812 266.035156 231.371094 266.042969 230.726562 C 266.046875 230.082031 266.117188 229.445312 266.246094 228.816406 C 266.378906 228.1875 266.570312 227.574219 266.820312 226.984375 C 267.070312 226.390625 267.378906 225.828125 267.738281 225.296875 C 268.101562 224.761719 268.511719 224.269531 268.96875 223.820312 C 269.429688 223.367188 269.925781 222.964844 270.464844 222.609375 C 271 222.257812 271.566406 221.960938 272.164062 221.714844 C 272.757812 221.472656 273.371094 221.292969 274.003906 221.167969 C 274.636719 221.046875 275.273438 220.988281 275.917969 220.992188 C 276.5625 220.996094 277.199219 221.058594 277.828125 221.1875 C 278.457031 221.316406 279.070312 221.503906 279.664062 221.753906 C 280.257812 222.003906 280.820312 222.304688 281.355469 222.664062 C 281.890625 223.023438 282.382812 223.433594 282.835938 223.890625 C 283.289062 224.34375 283.695312 224.839844 284.050781 225.378906 C 284.40625 225.914062 284.707031 226.480469 284.953125 227.074219 C 285.199219 227.667969 285.382812 228.28125 285.507812 228.914062 C 285.632812 229.542969 285.695312 230.179688 285.695312 230.824219 C 285.6875 231.472656 285.621094 232.117188 285.488281 232.75 C 285.355469 233.386719 285.164062 234.003906 284.910156 234.601562 C 284.65625 235.199219 284.347656 235.765625 283.984375 236.304688 C 283.621094 236.839844 283.207031 237.335938 282.746094 237.792969 C 282.28125 238.246094 281.78125 238.65625 281.238281 239.011719 C 280.695312 239.367188 280.125 239.667969 279.523438 239.914062 C 278.921875 240.15625 278.300781 240.339844 277.664062 240.464844 C 277.027344 240.585938 276.382812 240.644531 275.734375 240.640625 Z M 309.402344 240.640625 C 308.757812 240.644531 308.121094 240.582031 307.488281 240.453125 C 306.851562 240.328125 306.238281 240.144531 305.640625 239.898438 C 305.046875 239.648438 304.480469 239.347656 303.941406 238.988281 C 303.40625 238.632812 302.910156 238.222656 302.453125 237.769531 C 301.996094 237.3125 301.585938 236.816406 301.230469 236.28125 C 300.871094 235.742188 300.566406 235.175781 300.320312 234.582031 C 300.070312 233.984375 299.886719 233.371094 299.757812 232.738281 C 299.632812 232.105469 299.570312 231.464844 299.570312 230.820312 C 299.570312 230.171875 299.632812 229.535156 299.757812 228.902344 C 299.882812 228.269531 300.070312 227.652344 300.316406 227.058594 C 300.5625 226.460938 300.867188 225.894531 301.226562 225.359375 C 301.585938 224.820312 301.992188 224.324219 302.449219 223.867188 C 302.90625 223.410156 303.402344 223.003906 303.9375 222.644531 C 304.472656 222.289062 305.039062 221.984375 305.636719 221.738281 C 306.234375 221.492188 306.847656 221.304688 307.480469 221.179688 C 308.113281 221.054688 308.753906 220.988281 309.398438 220.992188 C 310.042969 220.992188 310.683594 221.054688 311.316406 221.179688 C 311.949219 221.304688 312.5625 221.492188 313.160156 221.738281 C 313.757812 221.988281 314.324219 222.289062 314.859375 222.648438 C 315.394531 223.007812 315.890625 223.414062 316.347656 223.871094 C 316.804688 224.328125 317.210938 224.824219 317.570312 225.363281 C 317.925781 225.898438 318.230469 226.464844 318.476562 227.0625 C 318.722656 227.660156 318.910156 228.273438 319.035156 228.90625 C 319.160156 229.539062 319.222656 230.179688 319.222656 230.824219 C 319.21875 231.46875 319.152344 232.105469 319.023438 232.734375 C 318.894531 233.367188 318.707031 233.976562 318.460938 234.570312 C 318.210938 235.164062 317.910156 235.726562 317.550781 236.261719 C 317.195312 236.796875 316.789062 237.292969 316.332031 237.746094 C 315.878906 238.203125 315.382812 238.609375 314.847656 238.96875 C 314.316406 239.324219 313.75 239.628906 313.15625 239.878906 C 312.566406 240.125 311.953125 240.3125 311.324219 240.441406 C 310.691406 240.570312 310.054688 240.636719 309.414062 240.640625 Z M 325.671875 182.183594 L 318.003906 210.90625 C 317.734375 211.84375 317.328125 212.71875 316.78125 213.523438 C 316.230469 214.332031 315.570312 215.03125 314.796875 215.625 C 314.019531 216.21875 313.171875 216.671875 312.25 216.992188 C 311.328125 217.3125 310.378906 217.476562 309.402344 217.488281 L 275.734375 217.488281 C 275.25 217.492188 274.769531 217.453125 274.292969 217.375 C 273.816406 217.300781 273.347656 217.183594 272.890625 217.03125 C 272.433594 216.875 271.988281 216.683594 271.5625 216.457031 C 271.136719 216.230469 270.730469 215.96875 270.347656 215.671875 C 269.964844 215.378906 269.609375 215.054688 269.28125 214.699219 C 268.949219 214.347656 268.652344 213.96875 268.386719 213.5625 C 268.117188 213.160156 267.886719 212.738281 267.691406 212.296875 C 267.492188 211.855469 267.332031 211.398438 267.210938 210.933594 L 259.351562 182.183594 C 259.363281 182.125 259.363281 182.066406 259.351562 182.011719 L 255.917969 169.296875 L 250.671875 169.296875 C 250.1875 169.273438 249.722656 169.160156 249.28125 168.960938 C 248.839844 168.757812 248.453125 168.480469 248.117188 168.128906 C 247.78125 167.78125 247.523438 167.378906 247.34375 166.929688 C 247.164062 166.476562 247.074219 166.007812 247.074219 165.523438 C 247.074219 165.039062 247.164062 164.570312 247.34375 164.121094 C 247.523438 163.667969 247.78125 163.269531 248.117188 162.917969 C 248.453125 162.566406 248.839844 162.289062 249.28125 162.089844 C 249.722656 161.886719 250.1875 161.773438 250.671875 161.753906 L 258.8125 161.753906 C 259.21875 161.738281 259.613281 161.789062 260 161.914062 C 260.386719 162.035156 260.742188 162.21875 261.066406 162.464844 C 261.386719 162.710938 261.660156 163.003906 261.878906 163.347656 C 262.101562 163.6875 262.257812 164.054688 262.347656 164.449219 L 265.835938 177.519531 L 322.050781 177.519531 C 322.628906 177.484375 323.179688 177.59375 323.699219 177.851562 C 324.21875 178.105469 324.640625 178.476562 324.964844 178.957031 C 325.355469 179.394531 325.617188 179.902344 325.742188 180.476562 C 325.871094 181.050781 325.847656 181.621094 325.679688 182.183594 Z M 325.671875 182.183594 " fill-opacity="1" fill-rule="nonzero"/></g><g  fill-opacity="1"><g transform="translate(36.219838, 281.228003)"><g><path d="M 98.28125 -33.109375 C 98.28125 -30.441406 97.578125 -27.84375 96.171875 -25.3125 C 94.765625 -22.914062 91.457031 -20.097656 86.25 -16.859375 C 81.050781 -13.628906 75.285156 -10.570312 68.953125 -7.6875 C 62.628906 -4.8125 56.515625 -2.351562 50.609375 -0.3125 C 44.710938 1.71875 40.359375 2.734375 37.546875 2.734375 C 35.578125 2.734375 33.253906 2.273438 30.578125 1.359375 C 27.910156 0.453125 25.238281 -0.703125 22.5625 -2.109375 C 19.894531 -3.515625 17.46875 -5.128906 15.28125 -6.953125 C 13.101562 -8.785156 11.523438 -10.546875 10.546875 -12.234375 C 9.984375 -13.210938 9.453125 -15.175781 8.953125 -18.125 C 8.460938 -21.082031 8.039062 -24.53125 7.6875 -28.46875 C 7.34375 -32.40625 7.03125 -36.585938 6.75 -41.015625 C 6.46875 -45.453125 6.21875 -49.671875 6 -53.671875 C 5.789062 -57.679688 5.648438 -61.234375 5.578125 -64.328125 C 5.515625 -67.421875 5.484375 -69.671875 5.484375 -71.078125 C 5.484375 -76.273438 5.65625 -82.25 6 -89 C 6.351562 -95.75 7.019531 -102.53125 8 -109.34375 C 8.988281 -116.164062 10.429688 -122.707031 12.328125 -128.96875 C 14.234375 -135.226562 16.800781 -140.535156 20.03125 -144.890625 C 21.019531 -146.160156 22.988281 -147.5 25.9375 -148.90625 C 28.894531 -150.3125 32.375 -151.644531 36.375 -152.90625 C 40.382812 -154.175781 44.707031 -155.375 49.34375 -156.5 C 53.988281 -157.625 58.453125 -158.570312 62.734375 -159.34375 C 67.023438 -160.113281 70.925781 -160.742188 74.4375 -161.234375 C 77.957031 -161.734375 80.632812 -161.984375 82.46875 -161.984375 C 84.570312 -161.984375 86.570312 -161.523438 88.46875 -160.609375 C 90.375 -159.691406 91.992188 -158.457031 93.328125 -156.90625 C 94.660156 -155.363281 95.710938 -153.644531 96.484375 -151.75 C 97.265625 -149.851562 97.65625 -147.847656 97.65625 -145.734375 C 97.65625 -143.910156 97.40625 -142.363281 96.90625 -141.09375 C 96.414062 -139.832031 95.679688 -138.425781 94.703125 -136.875 C 93.296875 -135.050781 90.34375 -132.875 85.84375 -130.34375 C 81.34375 -127.8125 76.453125 -125.3125 71.171875 -122.84375 C 65.898438 -120.382812 60.835938 -118.171875 55.984375 -116.203125 C 51.140625 -114.234375 47.734375 -112.828125 45.765625 -111.984375 C 45.203125 -108.753906 44.601562 -105.488281 43.96875 -102.1875 C 43.34375 -98.882812 42.890625 -95.546875 42.609375 -92.171875 C 46.960938 -94.421875 51.878906 -96.53125 57.359375 -98.5 C 62.847656 -100.46875 68.050781 -101.453125 72.96875 -101.453125 C 82.957031 -101.453125 87.953125 -96.53125 87.953125 -86.6875 C 87.953125 -84.289062 87.492188 -82.175781 86.578125 -80.34375 C 85.660156 -78.519531 84.460938 -76.90625 82.984375 -75.5 C 81.515625 -74.09375 79.828125 -72.863281 77.921875 -71.8125 C 76.023438 -70.757812 74.164062 -69.738281 72.34375 -68.75 C 67.84375 -66.363281 63.128906 -64.289062 58.203125 -62.53125 C 53.285156 -60.769531 48.367188 -59.046875 43.453125 -57.359375 C 43.171875 -56.234375 42.890625 -55.003906 42.609375 -53.671875 C 42.328125 -52.335938 42.1875 -51.039062 42.1875 -49.78125 C 42.1875 -47.8125 42.328125 -45.84375 42.609375 -43.875 C 42.890625 -41.90625 43.171875 -39.9375 43.453125 -37.96875 C 45.140625 -38.53125 47.84375 -39.441406 51.5625 -40.703125 C 55.289062 -41.972656 59.191406 -43.238281 63.265625 -44.5 C 67.347656 -45.769531 71.285156 -46.859375 75.078125 -47.765625 C 78.878906 -48.679688 81.691406 -49.140625 83.515625 -49.140625 C 85.628906 -49.140625 87.597656 -48.679688 89.421875 -47.765625 C 91.253906 -46.859375 92.800781 -45.664062 94.0625 -44.1875 C 95.332031 -42.707031 96.351562 -40.984375 97.125 -39.015625 C 97.894531 -37.046875 98.28125 -35.078125 98.28125 -33.109375 Z M 98.28125 -33.109375 "/></g></g><g transform="translate(137.666303, 281.228003)"><g><path d="M 75.296875 -148.0625 C 75.296875 -144.820312 74.273438 -142.003906 72.234375 -139.609375 C 70.191406 -137.222656 67.765625 -135.257812 64.953125 -133.71875 C 62.421875 -132.164062 59.820312 -130.507812 57.15625 -128.75 C 54.488281 -127 52.03125 -125.03125 49.78125 -122.84375 C 47.53125 -120.664062 45.703125 -118.238281 44.296875 -115.5625 C 42.890625 -112.894531 42.1875 -109.878906 42.1875 -106.515625 C 42.1875 -103.554688 42.890625 -100.878906 44.296875 -98.484375 C 45.703125 -96.097656 47.421875 -93.742188 49.453125 -91.421875 C 51.492188 -89.109375 53.742188 -86.71875 56.203125 -84.25 C 58.660156 -81.789062 60.910156 -79.050781 62.953125 -76.03125 C 64.992188 -73.007812 66.71875 -69.597656 68.125 -65.796875 C 69.53125 -62.003906 70.234375 -57.578125 70.234375 -52.515625 C 70.234375 -49.003906 69.492188 -45.03125 68.015625 -40.59375 C 66.535156 -36.164062 64.53125 -31.703125 62 -27.203125 C 59.46875 -22.703125 56.476562 -18.34375 53.03125 -14.125 C 49.59375 -9.90625 45.941406 -6.144531 42.078125 -2.84375 C 38.210938 0.457031 34.171875 3.125 29.953125 5.15625 C 25.734375 7.195312 21.65625 8.21875 17.71875 8.21875 C 13.351562 8.21875 9.484375 7.019531 6.109375 4.625 C 2.734375 2.238281 1.046875 -1.335938 1.046875 -6.109375 C 1.046875 -9.347656 1.816406 -12.335938 3.359375 -15.078125 C 4.910156 -17.816406 6.8125 -20.453125 9.0625 -22.984375 C 11.3125 -25.515625 13.804688 -27.972656 16.546875 -30.359375 C 19.296875 -32.753906 21.796875 -35.144531 24.046875 -37.53125 C 26.296875 -39.925781 28.191406 -42.425781 29.734375 -45.03125 C 31.285156 -47.632812 32.0625 -50.410156 32.0625 -53.359375 C 32.0625 -57.429688 30.617188 -61.613281 27.734375 -65.90625 C 24.847656 -70.195312 21.644531 -74.625 18.125 -79.1875 C 14.613281 -83.757812 11.414062 -88.4375 8.53125 -93.21875 C 5.65625 -98 4.21875 -102.851562 4.21875 -107.78125 C 4.21875 -113.820312 5.832031 -120.179688 9.0625 -126.859375 C 12.300781 -133.535156 16.453125 -139.648438 21.515625 -145.203125 C 26.578125 -150.765625 32.269531 -155.367188 38.59375 -159.015625 C 44.925781 -162.671875 51.179688 -164.5 57.359375 -164.5 C 62.285156 -164.5 66.503906 -163.023438 70.015625 -160.078125 C 73.535156 -157.128906 75.296875 -153.125 75.296875 -148.0625 Z M 75.296875 -148.0625 "/></g></g></g></svg>