<svg xmlns="http://www.w3.org/2000/svg" xmlns:xlink="http://www.w3.org/1999/xlink" width="500" zoomAndPan="magnify" viewBox="0 0 375 374.999991" height="500" preserveAspectRatio="xMidYMid meet" version="1.0"><defs><g/><clipPath id="dd1258a51b"><path d="M 271 48.25 L 371 48.25 L 371 166.386719 L 271 166.386719 Z M 271 48.25 " clip-rule="nonzero"/></clipPath></defs><g clip-path="url(#dd1258a51b)"><path d="M 321.171875 48.429688 C 318.703125 48.433594 316.25 48.621094 313.8125 48.988281 C 311.375 49.359375 308.976562 49.90625 306.617188 50.636719 C 304.261719 51.367188 301.972656 52.265625 299.75 53.339844 C 297.53125 54.410156 295.398438 55.640625 293.363281 57.03125 C 291.324219 58.421875 289.402344 59.957031 287.597656 61.636719 C 285.789062 63.316406 284.117188 65.121094 282.582031 67.050781 C 281.042969 68.980469 279.660156 71.015625 278.429688 73.152344 C 277.195312 75.289062 276.128906 77.503906 275.230469 79.800781 C 274.332031 82.097656 273.605469 84.449219 273.058594 86.855469 C 272.511719 89.261719 272.144531 91.691406 271.964844 94.152344 C 271.78125 96.613281 271.78125 99.074219 271.96875 101.53125 C 272.152344 103.992188 272.519531 106.425781 273.070312 108.828125 C 273.621094 111.234375 274.347656 113.582031 275.25 115.878906 C 276.152344 118.175781 277.21875 120.390625 278.453125 122.527344 C 279.6875 124.664062 281.074219 126.695312 282.613281 128.621094 C 284.152344 130.550781 285.828125 132.351562 287.636719 134.03125 L 319.480469 165.898438 C 319.957031 166.335938 320.519531 166.558594 321.164062 166.574219 C 321.84375 166.558594 322.445312 166.335938 322.96875 165.898438 L 354.3125 134.429688 C 356.15625 132.765625 357.867188 130.976562 359.441406 129.054688 C 361.015625 127.136719 362.4375 125.109375 363.703125 122.972656 C 364.972656 120.839844 366.074219 118.621094 367.007812 116.324219 C 367.9375 114.023438 368.695312 111.664062 369.273438 109.25 C 369.851562 106.835938 370.242188 104.390625 370.453125 101.917969 C 370.660156 99.445312 370.683594 96.96875 370.515625 94.492188 C 370.351562 92.015625 370 89.5625 369.464844 87.140625 C 368.933594 84.714844 368.21875 82.34375 367.324219 80.027344 C 366.433594 77.710938 365.371094 75.476562 364.140625 73.320312 C 362.910156 71.164062 361.523438 69.113281 359.984375 67.164062 C 358.445312 65.21875 356.769531 63.398438 354.953125 61.703125 C 353.136719 60.007812 351.207031 58.460938 349.15625 57.058594 C 347.109375 55.65625 344.96875 54.414062 342.730469 53.335938 C 340.496094 52.257812 338.191406 51.351562 335.820312 50.621094 C 333.445312 49.890625 331.03125 49.339844 328.578125 48.972656 C 326.121094 48.605469 323.652344 48.425781 321.171875 48.429688 Z M 309.851562 128.484375 C 309.429688 128.480469 309.011719 128.433594 308.601562 128.34375 C 308.1875 128.257812 307.785156 128.128906 307.398438 127.964844 C 307.011719 127.796875 306.640625 127.59375 306.292969 127.355469 C 305.945312 127.117188 305.625 126.847656 305.328125 126.546875 C 305.03125 126.242188 304.769531 125.914062 304.539062 125.5625 C 304.308594 125.207031 304.113281 124.835938 303.957031 124.445312 C 303.800781 124.050781 303.679688 123.648438 303.601562 123.234375 C 303.523438 122.820312 303.488281 122.398438 303.492188 121.976562 C 303.496094 121.554688 303.539062 121.136719 303.625 120.722656 C 303.710938 120.3125 303.835938 119.910156 304.003906 119.519531 C 304.167969 119.132812 304.367188 118.761719 304.605469 118.414062 C 304.84375 118.066406 305.113281 117.742188 305.414062 117.445312 C 305.714844 117.148438 306.039062 116.882812 306.394531 116.652344 C 306.746094 116.417969 307.117188 116.222656 307.507812 116.066406 C 307.898438 115.90625 308.300781 115.785156 308.71875 115.707031 C 309.132812 115.625 309.550781 115.585938 309.972656 115.589844 C 310.394531 115.589844 310.8125 115.632812 311.226562 115.71875 C 311.640625 115.800781 312.042969 115.925781 312.429688 116.089844 C 312.820312 116.253906 313.191406 116.453125 313.539062 116.6875 C 313.890625 116.921875 314.214844 117.191406 314.511719 117.492188 C 314.8125 117.789062 315.078125 118.117188 315.308594 118.46875 C 315.542969 118.820312 315.742188 119.191406 315.902344 119.582031 C 316.0625 119.972656 316.183594 120.375 316.265625 120.789062 C 316.347656 121.203125 316.390625 121.621094 316.390625 122.042969 C 316.386719 122.46875 316.339844 122.890625 316.253906 123.308594 C 316.167969 123.722656 316.039062 124.128906 315.875 124.519531 C 315.707031 124.914062 315.507812 125.285156 315.265625 125.636719 C 315.027344 125.992188 314.757812 126.316406 314.453125 126.617188 C 314.148438 126.914062 313.820312 127.179688 313.464844 127.414062 C 313.109375 127.648438 312.734375 127.847656 312.339844 128.007812 C 311.945312 128.167969 311.539062 128.289062 311.121094 128.367188 C 310.699219 128.449219 310.277344 128.488281 309.851562 128.484375 Z M 331.949219 128.484375 C 331.527344 128.484375 331.105469 128.445312 330.691406 128.363281 C 330.277344 128.28125 329.871094 128.160156 329.480469 127.996094 C 329.089844 127.835938 328.71875 127.636719 328.363281 127.402344 C 328.011719 127.167969 327.6875 126.898438 327.386719 126.597656 C 327.085938 126.300781 326.820312 125.972656 326.585938 125.621094 C 326.347656 125.269531 326.148438 124.898438 325.988281 124.507812 C 325.824219 124.117188 325.703125 123.710938 325.621094 123.296875 C 325.535156 122.882812 325.496094 122.460938 325.496094 122.039062 C 325.496094 121.613281 325.535156 121.195312 325.617188 120.78125 C 325.703125 120.363281 325.824219 119.960938 325.984375 119.570312 C 326.148438 119.179688 326.347656 118.808594 326.582031 118.453125 C 326.816406 118.101562 327.085938 117.777344 327.382812 117.476562 C 327.683594 117.175781 328.007812 116.910156 328.363281 116.675781 C 328.714844 116.4375 329.085938 116.242188 329.476562 116.078125 C 329.867188 115.917969 330.273438 115.792969 330.6875 115.710938 C 331.101562 115.628906 331.523438 115.589844 331.945312 115.589844 C 332.371094 115.589844 332.789062 115.628906 333.203125 115.710938 C 333.621094 115.796875 334.023438 115.917969 334.414062 116.082031 C 334.804688 116.242188 335.175781 116.441406 335.53125 116.675781 C 335.882812 116.914062 336.207031 117.179688 336.507812 117.480469 C 336.804688 117.777344 337.074219 118.105469 337.308594 118.457031 C 337.542969 118.808594 337.742188 119.183594 337.902344 119.574219 C 338.066406 119.964844 338.1875 120.367188 338.269531 120.785156 C 338.351562 121.199219 338.394531 121.617188 338.394531 122.042969 C 338.390625 122.464844 338.347656 122.882812 338.261719 123.296875 C 338.179688 123.710938 338.054688 124.113281 337.894531 124.5 C 337.730469 124.890625 337.53125 125.261719 337.296875 125.613281 C 337.0625 125.960938 336.796875 126.285156 336.496094 126.585938 C 336.199219 126.882812 335.875 127.152344 335.523438 127.386719 C 335.171875 127.621094 334.804688 127.820312 334.414062 127.984375 C 334.023438 128.148438 333.621094 128.269531 333.207031 128.355469 C 332.796875 128.4375 332.378906 128.484375 331.957031 128.484375 Z M 342.625 90.121094 L 337.59375 108.96875 C 337.417969 109.585938 337.148438 110.160156 336.789062 110.6875 C 336.429688 111.21875 335.996094 111.675781 335.488281 112.066406 C 334.980469 112.457031 334.421875 112.753906 333.816406 112.964844 C 333.210938 113.171875 332.589844 113.28125 331.949219 113.289062 L 309.851562 113.289062 C 309.214844 113.292969 308.589844 113.191406 307.984375 112.988281 C 307.378906 112.785156 306.824219 112.488281 306.316406 112.097656 C 305.8125 111.707031 305.382812 111.246094 305.027344 110.714844 C 304.675781 110.179688 304.417969 109.605469 304.257812 108.988281 L 299.101562 90.121094 C 299.105469 90.082031 299.105469 90.042969 299.101562 90.003906 L 296.847656 81.660156 L 293.402344 81.660156 C 293.085938 81.644531 292.78125 81.574219 292.492188 81.441406 C 292.203125 81.308594 291.945312 81.128906 291.726562 80.898438 C 291.507812 80.667969 291.339844 80.402344 291.21875 80.105469 C 291.101562 79.8125 291.042969 79.503906 291.042969 79.1875 C 291.042969 78.867188 291.101562 78.558594 291.21875 78.265625 C 291.339844 77.96875 291.507812 77.707031 291.726562 77.476562 C 291.945312 77.246094 292.203125 77.0625 292.492188 76.929688 C 292.78125 76.796875 293.085938 76.726562 293.402344 76.710938 L 298.746094 76.710938 C 299.011719 76.699219 299.273438 76.734375 299.527344 76.816406 C 299.78125 76.894531 300.011719 77.015625 300.226562 77.179688 C 300.4375 77.339844 300.613281 77.53125 300.757812 77.757812 C 300.90625 77.980469 301.007812 78.222656 301.066406 78.480469 L 303.355469 87.058594 L 340.25 87.058594 C 340.628906 87.035156 340.992188 87.105469 341.332031 87.273438 C 341.671875 87.441406 341.949219 87.683594 342.160156 88 C 342.417969 88.289062 342.589844 88.621094 342.671875 89 C 342.753906 89.375 342.742188 89.75 342.628906 90.121094 Z M 342.625 90.121094 " fill-opacity="1" fill-rule="nonzero"/></g><g  fill-opacity="1"><g transform="translate(12.794789, 254.740462)"><g><path d="M 54.984375 -108.109375 C 54.984375 -105.753906 54.238281 -103.703125 52.75 -101.953125 C 51.257812 -100.203125 49.488281 -98.765625 47.4375 -97.640625 C 45.582031 -96.515625 43.679688 -95.304688 41.734375 -94.015625 C 39.785156 -92.734375 37.988281 -91.296875 36.34375 -89.703125 C 34.695312 -88.117188 33.359375 -86.347656 32.328125 -84.390625 C 31.304688 -82.441406 30.796875 -80.238281 30.796875 -77.78125 C 30.796875 -75.625 31.304688 -73.671875 32.328125 -71.921875 C 33.359375 -70.171875 34.617188 -68.445312 36.109375 -66.75 C 37.597656 -65.0625 39.238281 -63.316406 41.03125 -61.515625 C 42.832031 -59.722656 44.476562 -57.722656 45.96875 -55.515625 C 47.457031 -53.304688 48.710938 -50.816406 49.734375 -48.046875 C 50.765625 -45.273438 51.28125 -42.039062 51.28125 -38.34375 C 51.28125 -35.78125 50.738281 -32.878906 49.65625 -29.640625 C 48.582031 -26.410156 47.117188 -23.148438 45.265625 -19.859375 C 43.421875 -16.578125 41.238281 -13.394531 38.71875 -10.3125 C 36.207031 -7.238281 33.539062 -4.492188 30.71875 -2.078125 C 27.894531 0.335938 24.941406 2.285156 21.859375 3.765625 C 18.785156 5.253906 15.8125 6 12.9375 6 C 9.75 6 6.921875 5.125 4.453125 3.375 C 1.992188 1.632812 0.765625 -0.976562 0.765625 -4.46875 C 0.765625 -6.832031 1.328125 -9.015625 2.453125 -11.015625 C 3.585938 -13.015625 4.976562 -14.9375 6.625 -16.78125 C 8.269531 -18.632812 10.09375 -20.429688 12.09375 -22.171875 C 14.09375 -23.921875 15.910156 -25.664062 17.546875 -27.40625 C 19.191406 -29.15625 20.578125 -30.976562 21.703125 -32.875 C 22.835938 -34.78125 23.40625 -36.8125 23.40625 -38.96875 C 23.40625 -41.945312 22.351562 -45 20.25 -48.125 C 18.144531 -51.257812 15.804688 -54.492188 13.234375 -57.828125 C 10.671875 -61.160156 8.335938 -64.570312 6.234375 -68.0625 C 4.128906 -71.5625 3.078125 -75.109375 3.078125 -78.703125 C 3.078125 -83.109375 4.257812 -87.75 6.625 -92.625 C 8.988281 -97.507812 12.015625 -101.976562 15.703125 -106.03125 C 19.398438 -110.082031 23.554688 -113.441406 28.171875 -116.109375 C 32.796875 -118.785156 37.367188 -120.125 41.890625 -120.125 C 45.484375 -120.125 48.5625 -119.046875 51.125 -116.890625 C 53.695312 -114.734375 54.984375 -111.804688 54.984375 -108.109375 Z M 54.984375 -108.109375 "/></g></g><g transform="translate(68.543822, 254.740462)"><g><path d="M 74.546875 -39.890625 C 74.546875 -38.140625 74.519531 -35.546875 74.46875 -32.109375 C 74.414062 -28.671875 74.257812 -25.078125 74 -21.328125 C 73.738281 -17.578125 73.40625 -14.035156 73 -10.703125 C 72.59375 -7.367188 72.078125 -4.929688 71.453125 -3.390625 C 70.640625 -1.441406 69.5625 0.25 68.21875 1.6875 C 66.882812 3.125 65.085938 3.84375 62.828125 3.84375 C 59.335938 3.84375 56.820312 2.457031 55.28125 -0.3125 C 53.75 -3.082031 52.722656 -6.519531 52.203125 -10.625 C 51.691406 -14.726562 51.488281 -19.191406 51.59375 -24.015625 C 51.695312 -28.847656 51.644531 -33.316406 51.4375 -37.421875 C 51.226562 -41.523438 50.660156 -44.960938 49.734375 -47.734375 C 48.816406 -50.515625 47.125 -51.90625 44.65625 -51.90625 C 41.269531 -51.90625 38.675781 -51.363281 36.875 -50.28125 C 35.082031 -49.207031 33.800781 -47.796875 33.03125 -46.046875 C 32.257812 -44.304688 31.796875 -42.304688 31.640625 -40.046875 C 31.492188 -37.785156 31.316406 -35.421875 31.109375 -32.953125 C 30.898438 -30.597656 30.742188 -27.414062 30.640625 -23.40625 C 30.546875 -19.40625 30.085938 -15.453125 29.265625 -11.546875 C 28.441406 -7.648438 27.078125 -4.289062 25.171875 -1.46875 C 23.273438 1.351562 20.476562 2.765625 16.78125 2.765625 C 14.53125 2.765625 12.707031 1.890625 11.3125 0.140625 C 9.925781 -1.597656 8.820312 -3.851562 8 -6.625 C 7.1875 -9.394531 6.597656 -12.472656 6.234375 -15.859375 C 5.878906 -19.242188 5.675781 -22.550781 5.625 -25.78125 C 5.570312 -29.019531 5.570312 -31.972656 5.625 -34.640625 C 5.675781 -37.316406 5.703125 -39.320312 5.703125 -40.65625 C 5.703125 -42.707031 5.773438 -46.09375 5.921875 -50.8125 C 6.078125 -55.539062 6.410156 -60.804688 6.921875 -66.609375 C 7.441406 -72.410156 8.113281 -78.390625 8.9375 -84.546875 C 9.757812 -90.710938 10.835938 -96.332031 12.171875 -101.40625 C 13.503906 -106.488281 15.117188 -110.617188 17.015625 -113.796875 C 18.910156 -116.984375 21.144531 -118.53125 23.71875 -118.4375 C 25.363281 -118.332031 26.773438 -117.609375 27.953125 -116.265625 C 29.128906 -114.929688 30.101562 -113.210938 30.875 -111.109375 C 31.644531 -109.003906 32.285156 -106.71875 32.796875 -104.25 C 33.316406 -101.789062 33.703125 -99.351562 33.953125 -96.9375 C 34.210938 -94.53125 34.367188 -92.300781 34.421875 -90.25 C 34.472656 -88.195312 34.5 -86.601562 34.5 -85.46875 C 34.5 -82.800781 34.445312 -80.132812 34.34375 -77.46875 C 34.238281 -74.800781 34.082031 -72.128906 33.875 -69.453125 C 36.238281 -72.640625 39.394531 -75.257812 43.34375 -77.3125 C 47.300781 -79.363281 51.28125 -80.390625 55.28125 -80.390625 C 60.414062 -80.390625 64.289062 -78.976562 66.90625 -76.15625 C 69.53125 -73.332031 71.40625 -69.84375 72.53125 -65.6875 C 73.664062 -61.53125 74.285156 -57.113281 74.390625 -52.4375 C 74.492188 -47.769531 74.546875 -43.585938 74.546875 -39.890625 Z M 74.546875 -39.890625 "/></g></g><g transform="translate(149.395318, 254.740462)"><g><path d="M 33.875 4.46875 C 28.644531 4.46875 24.078125 3.082031 20.171875 0.3125 C 16.273438 -2.457031 12.988281 -6 10.3125 -10.3125 C 7.644531 -14.625 5.644531 -19.425781 4.3125 -24.71875 C 2.976562 -30.007812 2.3125 -35.21875 2.3125 -40.34375 C 2.3125 -45.789062 2.976562 -51.414062 4.3125 -57.21875 C 5.644531 -63.019531 7.695312 -68.304688 10.46875 -73.078125 C 13.238281 -77.847656 16.78125 -81.75 21.09375 -84.78125 C 25.40625 -87.8125 30.539062 -89.328125 36.5 -89.328125 C 42.25 -89.328125 47.148438 -87.757812 51.203125 -84.625 C 55.265625 -81.488281 58.523438 -77.585938 60.984375 -72.921875 C 63.453125 -68.253906 65.195312 -63.144531 66.21875 -57.59375 C 67.25 -52.050781 67.609375 -46.816406 67.296875 -41.890625 C 66.992188 -36.453125 66.148438 -30.957031 64.765625 -25.40625 C 63.378906 -19.863281 61.347656 -14.882812 58.671875 -10.46875 C 56.003906 -6.050781 52.617188 -2.457031 48.515625 0.3125 C 44.410156 3.082031 39.53125 4.46875 33.875 4.46875 Z M 35.421875 -65.140625 C 33.878906 -65.140625 32.515625 -64.316406 31.328125 -62.671875 C 30.148438 -61.035156 29.175781 -59.035156 28.40625 -56.671875 C 27.644531 -54.304688 27.054688 -51.816406 26.640625 -49.203125 C 26.234375 -46.585938 26.03125 -44.304688 26.03125 -42.359375 C 26.03125 -39.890625 26.257812 -37.21875 26.71875 -34.34375 C 27.175781 -31.46875 27.816406 -28.820312 28.640625 -26.40625 C 29.460938 -24 30.460938 -22 31.640625 -20.40625 C 32.828125 -18.8125 34.191406 -18.015625 35.734375 -18.015625 C 37.367188 -18.015625 38.773438 -18.785156 39.953125 -20.328125 C 41.140625 -21.867188 42.09375 -23.816406 42.8125 -26.171875 C 43.53125 -28.535156 44.039062 -31.128906 44.34375 -33.953125 C 44.65625 -36.773438 44.8125 -39.421875 44.8125 -41.890625 C 44.8125 -44.148438 44.601562 -46.640625 44.1875 -49.359375 C 43.78125 -52.078125 43.191406 -54.617188 42.421875 -56.984375 C 41.660156 -59.347656 40.6875 -61.296875 39.5 -62.828125 C 38.320312 -64.367188 36.960938 -65.140625 35.421875 -65.140625 Z M 35.421875 -65.140625 "/></g></g><g transform="translate(219.928624, 254.740462)"><g><path d="M 75.15625 -45.890625 C 75.15625 -41.378906 74.664062 -36.425781 73.6875 -31.03125 C 72.71875 -25.644531 71.078125 -20.640625 68.765625 -16.015625 C 66.453125 -11.398438 63.421875 -7.550781 59.671875 -4.46875 C 55.929688 -1.382812 51.238281 0.15625 45.59375 0.15625 C 44.15625 0.15625 42.664062 0.0507812 41.125 -0.15625 C 39.582031 -0.363281 38.117188 -0.722656 36.734375 -1.234375 C 35.347656 -1.742188 34.085938 -2.4375 32.953125 -3.3125 C 31.828125 -4.1875 30.957031 -5.34375 30.34375 -6.78125 L 28.953125 15.40625 C 28.847656 17.757812 28.769531 20.578125 28.71875 23.859375 C 28.664062 27.148438 28.253906 30.285156 27.484375 33.265625 C 26.710938 36.242188 25.425781 38.785156 23.625 40.890625 C 21.832031 42.992188 19.242188 44.046875 15.859375 44.046875 C 13.910156 44.046875 12.269531 43.046875 10.9375 41.046875 C 9.601562 39.046875 8.550781 36.503906 7.78125 33.421875 C 7.007812 30.335938 6.414062 26.894531 6 23.09375 C 5.59375 19.300781 5.335938 15.660156 5.234375 12.171875 C 5.128906 8.679688 5.078125 5.5 5.078125 2.625 C 5.078125 -0.25 5.078125 -2.359375 5.078125 -3.703125 C 5.078125 -10.578125 5.023438 -17.425781 4.921875 -24.25 C 4.828125 -31.082031 4.78125 -37.9375 4.78125 -44.8125 C 4.78125 -46.050781 4.78125 -47.976562 4.78125 -50.59375 C 4.78125 -53.207031 4.878906 -56.054688 5.078125 -59.140625 C 5.285156 -62.222656 5.617188 -65.40625 6.078125 -68.6875 C 6.546875 -71.96875 7.238281 -74.96875 8.15625 -77.6875 C 9.082031 -80.414062 10.265625 -82.625 11.703125 -84.3125 C 13.140625 -86.007812 14.882812 -86.859375 16.9375 -86.859375 C 18.269531 -86.859375 19.472656 -86.472656 20.546875 -85.703125 C 21.628906 -84.929688 22.554688 -83.953125 23.328125 -82.765625 C 24.097656 -81.585938 24.738281 -80.332031 25.25 -79 C 25.769531 -77.664062 26.179688 -76.4375 26.484375 -75.3125 C 29.671875 -78.90625 33.34375 -81.625 37.5 -83.46875 C 41.65625 -85.320312 46.097656 -86.25 50.828125 -86.25 C 55.753906 -86.25 59.78125 -84.859375 62.90625 -82.078125 C 66.039062 -79.304688 68.503906 -75.867188 70.296875 -71.765625 C 72.097656 -67.660156 73.359375 -63.269531 74.078125 -58.59375 C 74.796875 -53.925781 75.15625 -49.691406 75.15625 -45.890625 Z M 53.125 -47.125 C 53.125 -48.664062 52.992188 -50.226562 52.734375 -51.8125 C 52.484375 -53.40625 52.023438 -54.894531 51.359375 -56.28125 C 50.691406 -57.675781 49.742188 -58.804688 48.515625 -59.671875 C 47.285156 -60.546875 45.742188 -60.984375 43.890625 -60.984375 C 41.429688 -60.984375 38.835938 -60.1875 36.109375 -58.59375 C 33.390625 -57.007812 31.363281 -55.1875 30.03125 -53.125 C 29.519531 -52.3125 29.210938 -50.976562 29.109375 -49.125 C 29.003906 -47.28125 28.953125 -45.894531 28.953125 -44.96875 C 28.953125 -44.25 28.976562 -43.296875 29.03125 -42.109375 C 29.082031 -40.929688 29.160156 -39.726562 29.265625 -38.5 C 29.367188 -37.269531 29.492188 -36.085938 29.640625 -34.953125 C 29.796875 -33.828125 30.03125 -32.957031 30.34375 -32.34375 C 30.644531 -31.414062 31.304688 -30.566406 32.328125 -29.796875 C 33.359375 -29.023438 34.488281 -28.332031 35.71875 -27.71875 C 36.957031 -27.101562 38.21875 -26.640625 39.5 -26.328125 C 40.78125 -26.023438 41.882812 -25.875 42.8125 -25.875 C 44.96875 -25.875 46.710938 -26.691406 48.046875 -28.328125 C 49.378906 -29.972656 50.429688 -31.925781 51.203125 -34.1875 C 51.972656 -36.445312 52.484375 -38.78125 52.734375 -41.1875 C 52.992188 -43.601562 53.125 -45.582031 53.125 -47.125 Z M 53.125 -47.125 "/></g></g><g transform="translate(299.856104, 254.740462)"><g><path d="M 30.03125 -107.5 C 30.03125 -106.0625 29.644531 -104.773438 28.875 -103.640625 C 28.101562 -102.515625 27.101562 -101.515625 25.875 -100.640625 C 24.644531 -99.765625 23.3125 -99.097656 21.875 -98.640625 C 20.4375 -98.179688 19.097656 -97.953125 17.859375 -97.953125 C 15.804688 -97.953125 14.007812 -98.460938 12.46875 -99.484375 C 10.9375 -100.515625 10.171875 -102.109375 10.171875 -104.265625 C 10.171875 -105.804688 10.550781 -107.164062 11.3125 -108.34375 C 12.082031 -109.519531 13.03125 -110.492188 14.15625 -111.265625 C 15.289062 -112.035156 16.578125 -112.625 18.015625 -113.03125 C 19.453125 -113.445312 20.835938 -113.65625 22.171875 -113.65625 C 24.128906 -113.65625 25.925781 -113.191406 27.5625 -112.265625 C 29.207031 -111.347656 30.03125 -109.757812 30.03125 -107.5 Z M 31.265625 -55.140625 C 31.265625 -53.703125 31.265625 -52.1875 31.265625 -50.59375 C 31.265625 -49 31.210938 -47.484375 31.109375 -46.046875 C 31.003906 -44.304688 30.953125 -41.972656 30.953125 -39.046875 C 30.953125 -36.117188 30.847656 -32.957031 30.640625 -29.5625 C 30.441406 -26.175781 30.109375 -22.738281 29.640625 -19.25 C 29.179688 -15.757812 28.4375 -12.578125 27.40625 -9.703125 C 26.382812 -6.828125 25.023438 -4.488281 23.328125 -2.6875 C 21.640625 -0.894531 19.507812 0.0507812 16.9375 0.15625 C 14.988281 0.257812 13.347656 -0.507812 12.015625 -2.15625 C 10.679688 -3.800781 9.578125 -5.929688 8.703125 -8.546875 C 7.828125 -11.160156 7.179688 -14.082031 6.765625 -17.3125 C 6.359375 -20.550781 6.050781 -23.6875 5.84375 -26.71875 C 5.644531 -29.75 5.546875 -32.546875 5.546875 -35.109375 C 5.546875 -37.679688 5.546875 -39.582031 5.546875 -40.8125 C 5.546875 -42.457031 5.546875 -44.789062 5.546875 -47.8125 C 5.546875 -50.84375 5.644531 -54.101562 5.84375 -57.59375 C 6.050781 -61.082031 6.4375 -64.625 7 -68.21875 C 7.570312 -71.8125 8.394531 -75.097656 9.46875 -78.078125 C 10.550781 -81.054688 11.960938 -83.46875 13.703125 -85.3125 C 15.453125 -87.164062 17.660156 -88.09375 20.328125 -88.09375 C 23.097656 -88.09375 25.203125 -86.707031 26.640625 -83.9375 C 28.078125 -81.164062 29.15625 -77.929688 29.875 -74.234375 C 30.59375 -70.535156 31.003906 -66.863281 31.109375 -63.21875 C 31.210938 -59.570312 31.265625 -56.878906 31.265625 -55.140625 Z M 31.265625 -55.140625 "/></g></g></g></svg>